<svg width="40" height="40" viewBox="0 0 40 40" fill="none" xmlns="http://www.w3.org/2000/svg">
  <rect width="40" height="40" rx="8" fill="#2563EB"/>
  <path d="M8 12C8 10.8954 8.89543 10 10 10H30C31.1046 10 32 10.8954 32 12V16C32 17.1046 31.1046 18 30 18H10C8.89543 18 8 17.1046 8 16V12Z" fill="white"/>
  <path d="M8 22C8 20.8954 8.89543 20 10 20H24C25.1046 20 26 20.8954 26 22V26C26 27.1046 25.1046 28 24 28H10C8.89543 28 8 27.1046 8 26V22Z" fill="white"/>
  <path d="M8 30C8 28.8954 8.89543 28 10 28H18C19.1046 28 20 28.8954 20 30V32C20 33.1046 19.1046 34 18 34H10C8.89543 34 8 33.1046 8 32V30Z" fill="white"/>
  <circle cx="30" cy="24" r="4" fill="#10B981"/>
  <path d="M28 24L29.5 25.5L32 23" stroke="white" stroke-width="1.5" stroke-linecap="round" stroke-linejoin="round"/>
</svg>

